<?xml version="1.0" encoding="UTF-8" standalone="no"?>
<!-- Generator: Adobe Illustrator 19.0.0, SVG Export Plug-In . SVG Version: 6.00 Build 0)  -->

<svg
   version="1.1"
   id="Layer_1"
   x="0px"
   y="0px"
   viewBox="0 0 2303.7392 2126.4427"
   xml:space="preserve"
   inkscape:version="1.1 (c68e22c387, 2021-05-23)"
   sodipodi:docname="eureka.svg"
   width="2303.7393"
   height="2126.4426"
   inkscape:export-filename="E:\PROJECT\SITE\PERSONAL\EUREKA\LOGO\eureka.png"
   inkscape:export-xdpi="90"
   inkscape:export-ydpi="90"
   xmlns:inkscape="http://www.inkscape.org/namespaces/inkscape"
   xmlns:sodipodi="http://sodipodi.sourceforge.net/DTD/sodipodi-0.dtd"
   xmlns="http://www.w3.org/2000/svg"
   xmlns:svg="http://www.w3.org/2000/svg"
   xmlns:rdf="http://www.w3.org/1999/02/22-rdf-syntax-ns#"
   xmlns:cc="http://creativecommons.org/ns#"
   xmlns:dc="http://purl.org/dc/elements/1.1/"><metadata
   id="metadata43"><rdf:RDF><cc:Work
       rdf:about=""><dc:format>image/svg+xml</dc:format><dc:type
         rdf:resource="http://purl.org/dc/dcmitype/StillImage" /></cc:Work></rdf:RDF></metadata><defs
   id="defs41" /><sodipodi:namedview
   pagecolor="#ffffff"
   bordercolor="#666666"
   borderopacity="1"
   objecttolerance="10"
   gridtolerance="10"
   guidetolerance="10"
   inkscape:pageopacity="0"
   inkscape:pageshadow="2"
   inkscape:window-width="3840"
   inkscape:window-height="2126"
   id="namedview39"
   showgrid="false"
   inkscape:zoom="0.35355339"
   inkscape:cx="865.4987"
   inkscape:cy="1131.3709"
   inkscape:window-x="-11"
   inkscape:window-y="-11"
   inkscape:window-maximized="1"
   inkscape:current-layer="Layer_1"
   fit-margin-top="100"
   fit-margin-left="100"
   fit-margin-right="100"
   fit-margin-bottom="100"
   inkscape:pagecheckerboard="0" /><g
   id="g9"
   transform="translate(-408.00766,2229.6145)"
   style="stroke:#4ba6c2;stroke-opacity:1" /><g
   id="g11"
   transform="translate(-408.00766,2229.6145)"
   style="stroke:#4ba6c2;stroke-opacity:1" /><g
   id="g13"
   transform="translate(-408.00766,2229.6145)"
   style="stroke:#4ba6c2;stroke-opacity:1" /><g
   id="g15"
   transform="translate(-408.00766,2229.6145)"
   style="stroke:#4ba6c2;stroke-opacity:1" /><g
   id="g17"
   transform="translate(-408.00766,2229.6145)"
   style="stroke:#4ba6c2;stroke-opacity:1" /><g
   id="g19"
   transform="translate(-408.00766,2229.6145)"
   style="stroke:#4ba6c2;stroke-opacity:1" /><g
   id="g21"
   transform="translate(-408.00766,2229.6145)"
   style="stroke:#4ba6c2;stroke-opacity:1" /><g
   id="g23"
   transform="translate(-408.00766,2229.6145)"
   style="stroke:#4ba6c2;stroke-opacity:1" /><g
   id="g25"
   transform="translate(-408.00766,2229.6145)"
   style="stroke:#4ba6c2;stroke-opacity:1" /><g
   id="g27"
   transform="translate(-408.00766,2229.6145)"
   style="stroke:#4ba6c2;stroke-opacity:1" /><g
   id="g29"
   transform="translate(-408.00766,2229.6145)"
   style="stroke:#4ba6c2;stroke-opacity:1" /><g
   id="g31"
   transform="translate(-408.00766,2229.6145)"
   style="stroke:#4ba6c2;stroke-opacity:1" /><g
   id="g33"
   transform="translate(-408.00766,2229.6145)"
   style="stroke:#4ba6c2;stroke-opacity:1" /><g
   id="g35"
   transform="translate(-408.00766,2229.6145)"
   style="stroke:#4ba6c2;stroke-opacity:1" /><g
   id="g37"
   transform="translate(-408.00766,2229.6145)"
   style="stroke:#4ba6c2;stroke-opacity:1" /><text
   xml:space="preserve"
   style="font-style:normal;font-weight:normal;font-size:49.1694px;line-height:100%;font-family:sans-serif;letter-spacing:-40px;word-spacing:0px;fill:#0a93d3;fill-opacity:1;stroke:#4ba6c2;stroke-width:1.22924px;stroke-linecap:butt;stroke-linejoin:miter;stroke-opacity:1"
   x="61.432697"
   y="2016.6086"
   id="text4189"><tspan
     sodipodi:role="line"
     id="tspan4191"
     x="61.432697"
     y="2016.6086"
     style="font-style:normal;font-variant:normal;font-weight:normal;font-stretch:normal;font-size:768.273px;font-family:Ubuntu;-inkscape-font-specification:Ubuntu;fill:#0a93d3;fill-opacity:1;stroke:#4ba6c2;stroke-width:1.22924px;stroke-opacity:1">eureka</tspan></text>
<g
   id="g6437"
   transform="translate(-10.407696,109.05834)"><path
     id="path6217"
     style="fill:none;stroke:#1b6ab5;stroke-width:47.5293;stroke-linecap:butt;stroke-linejoin:miter;stroke-miterlimit:10;stroke-dasharray:none;stroke-opacity:1"
     d="m 823.1618,800.5746 c 0,0 1.0481,2.1638 2.6146,5.4246 1.713,3.1855 3.3651,7.7686 6.0699,11.7807 5.0038,8.2495 10.0233,16.4989 10.0233,16.4989 0,0 1.2465,2.0587 3.1251,5.154 1.8032,3.1406 4.3874,7.2127 7.4077,10.9844 5.7859,7.7235 11.556,15.4471 11.556,15.4471 -0.8227,0.6908 25.2443,29.1511 25.2443,29.1511 0,0 1.6071,1.7882 4.0414,4.4628 2.6754,2.4494 6.2209,5.7101 9.7821,8.9708 7.1383,6.4914 14.2755,12.9678 14.2755,12.9678 0,0 1.6375,1.8031 4.6127,3.8768 2.8851,2.1788 6.7619,5.0638 10.624,7.9489 7.7232,5.7852 15.4475,11.5554 15.4475,11.5554 0,0 8.2337,5.0337 16.4539,10.0676 4.1315,2.5094 8.2495,5.0038 11.3441,6.8821 3.0361,1.9684 5.2596,2.9451 5.2596,2.9451 0,0 8.6857,4.1774 17.3859,8.3698 4.3423,2.0886 8.6845,4.1923 11.946,5.755 3.3201,1.4425 5.6191,2.1638 5.6191,2.1638 0,0 36.1084,13.6891 36.4544,12.5771 0,0 37.3401,9.7972 37.5655,8.6852 0,0 9.5422,1.4576 19.0685,2.9152 4.7784,0.7517 9.5421,1.5327 13.1631,1.5327 3.6221,0.1803 6.026,0.3009 6.026,0.3009 0,0 9.6323,0.4812 19.2634,0.9771 4.8235,0.3302 9.6469,0.4654 13.2533,0.1206 3.6221,-0.1803 6.0259,-0.3009 6.0259,-0.3009 0,0 9.6323,-0.4959 19.2635,-0.9771 4.8392,-0.09 9.6322,-0.586 13.1935,-1.2772 3.5759,-0.5556 5.9651,-0.9163 5.9651,-0.9163 0,0 9.5275,-1.4576 19.0685,-2.9151 4.8088,-0.541 9.4666,-1.8032 12.9681,-2.7348 3.5015,-0.9016 5.8298,-1.5026 5.8298,-1.5026 0,0 9.3472,-2.4042 18.6932,-4.8085 4.7333,-0.9771 9.1207,-3.0954 12.5625,-4.1924 3.3955,-1.2471 5.6642,-2.0736 5.6642,-2.0736 0,0 9.0609,-3.3208 18.1218,-6.6416 8.7904,-3.9369 17.4309,-8.2495 17.4309,-8.2495 0,0 8.6699,-4.2375 17.3251,-8.4749 8.2494,-5.0188 16.4843,-10.0226 16.4843,-10.0226 0,0 2.0736,-1.2472 5.1536,-3.1255 3.0361,-1.9684 7.3784,-4.1623 11.1199,-7.2277 7.7232,-5.7701 15.4475,-11.5552 15.4475,-11.5552 0,0 1.9384,-1.4425 4.8381,-3.6063 2.9899,-2.0587 6.7022,-5.1241 10.1879,-8.4749 7.1372,-6.4914 14.2755,-12.9828 14.2755,-12.9828 0.7663,0.7663 26.5662,-27.9491 26.5662,-27.9491 0,0 1.6082,-1.7881 4.0425,-4.4628 2.1638,-2.9002 5.0488,-6.7619 7.9486,-10.6237 5.7701,-7.7235 11.5549,-15.4471 11.5549,-15.4471 0,0 1.5777,-1.8483 3.3663,-5.0038 1.8786,-3.0954 4.3726,-7.2127 6.8824,-11.3299 5.0038,-8.2494 10.0222,-16.4989 10.0222,-16.4989 0,0 4.1924,-8.6853 8.3701,-17.3856 2.1029,-4.3426 4.1923,-8.6851 5.7543,-11.9459 1.668,-3.2156 2.3892,-5.5297 2.3892,-5.5297 0,0 3.3066,-9.0609 6.6267,-18.1218 1.6532,-4.523 3.3212,-9.0609 4.5687,-12.4569 1.0819,-3.441 1.5925,-5.8001 1.5925,-5.8001 0,0 2.4038,-9.3465 4.8088,-18.6929 1.1562,-4.6882 2.494,-9.3313 3.2006,-12.8625 0.5522,-3.5764 0.9128,-5.9656 0.9128,-5.9656 0,0 6.1308,-38.1218 4.9734,-38.2271 0,0 2.1796,-38.5426 1.0255,-38.5426 0,0 -1.8031,-38.5576 -2.9301,-38.4525 0,0 -1.4425,-9.5267 -2.8997,-19.0685 -0.6649,-4.7784 -1.4425,-9.5416 -2.5098,-13.0127 -0.9016,-3.5012 -1.5023,-5.8303 -1.5023,-5.8303 0,0 -2.4049,-9.3464 -4.8088,-18.6928 -1.0368,-4.7333 -2.6743,-9.2563 -3.9816,-12.6372 -1.2476,-3.396 -2.0736,-5.6649 -2.0736,-5.6649 0,0 -3.3212,-9.0609 -6.6267,-18.1218 -1.4425,-4.6132 -3.9827,-8.7754 -5.4252,-12.0963 -1.562,-3.2457 -2.6146,-5.4245 -2.6146,-5.4245 0,0 -4.1924,-8.6853 -8.3847,-17.3856 -4.9587,-8.2644 -9.9174,-16.544 -9.9174,-16.544 0,0 -4.8686,-8.3396 -10.1721,-16.3787 -5.7702,-7.7386 -11.5561,-15.4621 -11.5561,-15.4621 0,0 -1.4425,-1.9235 -3.6063,-4.8235 -2.2089,-2.8701 -4.8979,-6.8821 -8.2946,-10.3231 -6.4914,-7.1526 -12.9828,-14.2901 -12.9828,-14.2901 0,0 -1.6228,-1.7731 -4.0571,-4.4628 -2.3137,-2.78 -5.8298,-6.0857 -9.4508,-9.2714 -7.1383,-6.4913 -14.2901,-12.9827 -14.2901,-12.9827 0.71,-0.8565 -30.3991,-23.7266 -30.3991,-23.7266 0,0 -1.9384,-1.4125 -4.8686,-3.5463 -3.0946,-1.8782 -7.2126,-4.3727 -11.3295,-6.882 -8.2494,-5.0189 -16.4989,-10.0227 -16.4989,-10.0227 0,0 -2.0139,-1.3373 -5.3194,-2.8249 -3.2603,-1.5627 -7.6037,-3.6514 -11.9459,-5.7551 -8.7003,-4.1623 -17.4006,-8.3396 -17.4006,-8.3396 0,0 -9.0609,-3.3209 -18.1218,-6.6417 -4.5225,-1.6529 -9.0609,-3.3058 -12.4565,-4.553 -3.3516,-1.3523 -5.7408,-1.8182 -5.7408,-1.8182 0,0 -9.346,-2.4042 -18.6774,-4.8084 -4.6736,-1.2021 -9.346,-2.4043 -12.8476,-3.3059 -3.5308,-0.8114 -5.9357,-1.0514 -5.9357,-1.0514 0,0 -9.541,-1.4426 -19.0832,-2.9001 -4.7637,-0.7213 -9.5263,-1.4576 -13.1033,-1.9986 -3.621,-0.1803 -6.0249,-0.3009 -6.0249,-0.3009 0,0 -9.6322,-0.4958 -19.2792,-0.9771 -4.8088,-0.2254 -9.6323,-0.4508 -13.2386,-0.6164 -3.621,0.09 -6.0248,0.1499 -6.0248,0.1499 0,0 -2.4196,0.056 -6.026,0.1499 -3.621,0.034 -8.4444,0.24 -13.2532,0.6908 -9.6323,0.5556 -19.2037,1.8332 -19.2037,1.8332 0,0 -9.6165,0.9321 -19.0685,2.84 -9.5421,1.5026 -18.9186,3.8318 -18.9186,3.8318 0,0 -9.4362,1.9834 -18.6774,4.8084 -9.3314,2.4343 -18.3923,5.7852 -18.3923,5.7852 0,0 -2.494,0.8418 -6.852,2.314 -4.2679,1.698 -10.3829,4.1173 -17.7015,7.0173 -14.485,6.2359 -33.3427,15.5974 -51.1648,26.777 -17.8964,11.0294 -34.5903,23.907 -46.401,34.3503 -6.0406,5.0639 -10.7289,9.677 -14.0501,12.8476 -3.3358,3.1705 -5.2291,4.9888 -5.2291,4.9888" /><path
     id="path6219"
     style="fill:#1b6ab5;fill-opacity:1;fill-rule:nonzero;stroke:none;stroke-width:1.50263"
     d="m 759.0289,729.8756 c -3.186,-10.7438 0,-21.7282 5.4095,-29.7522 5.53,-8.1143 14.0646,-13.4486 24.177,-14.7259 10.1135,-1.2622 19.8957,1.5628 27.4386,6.6116 7.7389,5.0639 12.3212,12.5621 15.026,21.2774 2.299,8.8054 0.3042,17.8363 -4.5677,25.8153 -4.5676,7.8438 -11.7206,14.5155 -21.4272,17.8362 -9.5872,3.2608 -20.0152,2.3292 -28.5351,-2.5394 -8.2044,-4.9136 -14.7713,-13.689 -17.5211,-24.523 z M 877.392,702.6177 c -2.8107,-8.5049 -5.245,-16.6793 -11.0444,-23.8618 -2.6901,-3.6365 -6.0259,-7.0625 -9.4824,-10.3682 -3.1702,-3.3359 -6.7619,-6.4914 -10.7435,-9.4366 -15.8825,-11.6455 -37.5509,-20.5712 -60.8264,-20.6913 -23.2912,-0.1014 -43.9972,9.7972 -58.3481,28.5651 -3.5906,4.6582 -6.7765,9.8272 -9.4813,15.4321 -2.4343,5.5747 -4.0875,11.5553 -5.334,17.8814 -2.104,12.547 -3.4418,26.6868 0.586,40.4059 3.6808,13.7642 8.76,26.5666 16.9498,36.6945 8.1886,10.1428 17.7454,18.1668 27.9186,23.5612 13.5384,6.8672 28.3097,8.9859 42.6449,6.8971 0.9805,2.0437 1.5924,3.3209 1.5924,3.3209 l 21.3382,-10.4434 v 0 0 l 21.3517,-10.4583 c 0,0 -0.6423,-1.3373 -1.5327,-3.1556 10.6838,-9.2562 19.144,-20.1352 25.1542,-31.375 4.9294,-8.9106 8.2799,-17.8964 9.5568,-26.6418 1.2622,-8.7453 2.2088,-17.7762 -0.3043,-26.3262" /><path
     id="path6221"
     style="fill:none;stroke:#1b6ab5;stroke-width:47.5293;stroke-linecap:butt;stroke-linejoin:miter;stroke-miterlimit:10;stroke-dasharray:none;stroke-opacity:1"
     d="m 1636.8851,760.2439 c 0,0 0.5973,-2.3441 1.5022,-5.8603 0.9805,-3.5011 2.0737,-8.2044 2.9302,-12.9827 1.8933,-9.4818 3.7866,-18.9784 3.7866,-18.9784 0,0 1.3828,-9.5868 2.7645,-19.1737 0.7664,-4.7784 1.3231,-9.5867 1.5631,-13.2082 0.3269,-3.6213 0.541,-6.0255 0.541,-6.0255 0,0 1.1574,-9.6319 1.4425,-19.3089 0.3606,-9.677 0.71,-19.339 0.71,-19.339 0,0 -0.124,-9.692 -0.2367,-19.3689 0.1127,-9.692 -0.9015,-19.324 -0.9015,-19.324 0,0 -0.1804,-2.6446 -0.4959,-7.2427 -0.1916,-4.6131 -0.9129,-11.1645 -1.9226,-19.0083 -1.6533,-15.7326 -5.2292,-36.5592 -10.1586,-57.0702 -4.7333,-20.5561 -11.3442,-40.6163 -16.5891,-55.5375 -5.8152,-14.7109 -9.692,-24.523 -9.692,-24.523" /><path
     id="path6223"
     style="fill:#1b6ab5;fill-opacity:1;fill-rule:nonzero;stroke:none;stroke-width:1.50263"
     d="m 1643.0902,854.865 c -8.6552,20.3607 -32.0805,28.0241 -49.8417,18.1969 -17.9269,-9.8874 -24.9288,-31.0895 -17.7319,-48.2347 7.8742,-16.8445 28.0392,-25.9205 47.5585,-19.2037 19.0392,6.5215 29.3014,29.1512 20.0151,49.2415 z m 44.208,-53.2384 c -5.9358,-13.4487 -15.9129,-24.3878 -28.2195,-31.9912 0.5409,-2.1788 0.8452,-3.5463 0.8452,-3.5463 l -23.0208,-5.8452 v 0 c 0,0 0,0 0,0 l -23.0354,-5.8453 c 0,0 -0.3156,1.3674 -0.7551,3.1856 -14.1999,0.2401 -27.7237,3.6515 -39.9548,8.9106 -9.3764,4.1473 -17.3408,9.677 -24.5681,16.0783 -6.8824,6.5514 -12.4125,14.1849 -16.4989,22.9602 -7.4832,17.7612 -7.6038,37.2805 -1.3073,56.7547 6.311,19.2938 18.7529,38.4975 38.1211,51.4803 19.3097,12.9528 42.5254,16.5741 64.4936,9.632 21.8183,-6.807 42.4195,-24.1774 53.1336,-49.2414 11.3149,-24.7936 10.4133,-51.766 0.7777,-72.5323" /><path
     id="path6225"
     style="fill:none;stroke:#1b6ab5;stroke-width:47.5293;stroke-linecap:butt;stroke-linejoin:miter;stroke-miterlimit:10;stroke-dasharray:none;stroke-opacity:1"
     d="m 1239.0167,148.986 c 0,0 -2.3892,-0.4655 -5.9504,-1.142 -3.5917,-0.6164 -8.3104,-1.8183 -13.1631,-2.0436 -9.647,-0.8712 -19.3097,-1.728 -19.3097,-1.728 0,0 -9.6469,-0.8712 -19.2938,-1.7431 -4.8235,-0.6311 -9.6763,-0.4057 -13.313,-0.4057 -3.6368,0.034 -6.0553,0.056 -6.0553,0.056 0,0 -9.692,0.079 -19.384,0.1498 -4.8392,0.045 -9.692,0.09 -13.3288,0.1206 -3.621,0.1353 -6.0259,0.5105 -6.0259,0.5105 l -38.5573,4.0722 c 0,0 -2.4343,0.1014 -5.9955,0.7967 -3.5613,0.7213 -8.3093,1.6829 -13.0583,2.6597 -9.496,1.9384 -18.993,3.8618 -18.993,3.8618 0,0 -2.3745,0.4959 -5.9358,1.2172 -3.5759,0.6908 -8.3239,1.6228 -12.9219,3.2156 -9.2717,2.8249 -18.5433,5.6649 -18.5433,5.6649 0,0 -9.2705,2.84 -18.5275,5.6649 -9.1511,3.1706 -18.0159,7.1376 -18.0159,7.1376 0,0 -36.0036,14.4253 -35.5224,15.447 L 902.8617,210.65 c 0,0 -2.1492,1.142 -5.139,3.2007 -3.0361,1.9984 -7.0774,4.6732 -11.1199,7.3479 -8.0838,5.3343 -16.1834,10.6687 -16.1834,10.6687 0,0 -2.0139,1.3373 -5.0489,3.3359 -3.1409,1.8632 -6.8824,4.9436 -10.6387,8.009 -7.5282,6.1007 -15.071,12.2014 -15.071,12.2014 0,0 -7.5283,6.0857 -15.0722,12.1864 -6.9265,6.7769 -13.854,13.5538 -13.854,13.5538 0,0 -27.8138,27.0174 -26.972,27.7988 l -24.7788,29.8123 c 0,0 -1.5474,1.8633 -3.5162,4.9286 -2.0286,3.0053 -4.7333,7.0324 -7.4527,11.0444 -5.4095,8.0392 -10.8348,16.0783 -10.8348,16.0783 0,0 -1.3523,2.0135 -3.3809,5.0187 -2.1334,2.9603 -4.7175,7.0475 -6.8667,11.4051 -4.5834,8.535 -9.151,17.085 -9.151,17.085 0,0 -4.5835,8.55 -9.1511,17.0849 -2.4794,4.1924 -4.1777,8.7454 -5.5594,12.0963 -1.3828,3.3659 -2.3148,5.6048 -2.3148,5.6048 0,0 -3.6807,8.9558 -7.3772,17.9266 -1.8482,4.4778 -3.6818,8.9556 -5.0793,12.3215 -1.4729,3.3209 -2.1041,5.665 -2.1041,5.665 l -11.059,37.1602 c -1.1157,-0.2705 -8.1593,37.8665 -8.1593,37.8665 0,0 -1.8336,9.5117 -3.6514,19.0384 -0.8565,9.6469 -1.7277,19.3089 -1.7277,19.3089 0,0 -3.6514,38.6027 -2.5402,38.6478 l 0.3268,38.7681 4.0718,38.5426 c -1.0932,0.1803 6.8825,38.122 6.8825,38.122 0,0 1.9981,9.4816 3.9962,18.9632 2.8254,9.2713 5.6653,18.5426 5.6653,18.5426 0,0 2.8254,9.2712 5.6654,18.5425 1.3073,4.6732 2.8693,9.2562 4.4019,12.5621 1.3828,3.3508 2.3149,5.5899 2.3149,5.5899 0,0 3.6964,8.9556 7.3929,17.9262 1.8629,4.4781 3.7112,8.9559 5.094,12.3066 1.2915,3.4112 2.5537,5.4847 2.5537,5.4847 l 18.1522,34.2601 c 0,0 1.1417,2.1489 2.84,5.3495 1.9982,3.0353 4.6578,7.0924 7.3175,11.1345 5.3351,8.0842 10.6837,16.1834 10.6837,16.1834 0,0 1.3378,2.0135 3.3359,5.0489 2.1041,2.9601 4.4178,7.2577 7.6488,10.894 6.1003,7.5433 12.186,15.0716 12.186,15.0716 0,0 6.1015,7.5432 12.1872,15.0714 2.9143,3.9069 6.4158,7.2727 8.9549,9.8573 2.5549,2.5845 4.2532,4.3125 4.2532,4.3125 0,0 6.807,6.8971 13.6139,13.8093 3.3956,3.456 6.807,6.8971 9.3461,9.4816 2.539,2.6146 4.5383,4.0271 4.5383,4.0271 l 29.812,24.7785 c 0,0 1.8629,1.5477 4.6578,3.8618 3.0056,2.0436 7.0323,4.7483 11.0443,7.468 8.0399,5.4246 16.064,10.8341 16.064,10.8341 0,0 7.9339,5.5898 16.1834,10.6537 8.5493,4.5831 17.085,9.166 17.085,9.166 0,0 34.1091,18.4224 34.4697,17.7161 0,0 8.7758,4.1173 17.8221,7.6034 8.9256,3.7717 18.106,6.9121 18.106,6.9121 0,0 9.0767,3.396 18.363,6.191 9.1961,3.0953 18.5872,5.4845 18.5872,5.4845 0,0 9.3314,2.6297 18.798,4.7484 9.3911,2.3591 18.9637,3.997 18.9637,3.997 0,0 10.3524,2.0436 26.0399,4.2675 15.6876,2.1488 36.7553,3.997 57.867,4.3577 21.1274,0.4508 42.2391,-0.7359 57.9864,-2.4494 7.8888,-0.6762 14.4107,-1.6528 18.9941,-2.2839 4.5823,-0.6165 7.1969,-0.9771 7.1969,-0.9771" /><path
     id="path6227"
     style="fill:#1b6ab5;fill-opacity:1;fill-rule:nonzero;stroke:none;stroke-width:1.50263"
     d="m 1354.9298,183.8171 c -8.4444,18.5426 -29.3319,27.934 -46.4912,20.7815 -17.8063,-5.2592 -28.1598,-25.6651 -23.0805,-45.4097 5.0781,-19.7296 26.5358,-30.744 47.7388,-24.2977 20.511,8.3697 30.2931,30.3683 21.8329,48.9259 z m 47.1978,-44.1775 c -8.2641,-21.7131 -27.9941,-39.0385 -53.1629,-49.557 -13.0279,-4.0271 -26.2665,-5.4846 -38.6328,-4.6732 -12.3517,0.7517 -23.8469,3.7566 -34.0054,9.9324 -13.073,7.5282 -23.1707,18.1519 -29.7523,30.9093 -2.2088,-0.4361 -3.5759,-0.6908 -3.5759,-0.6908 l -7.979,46.8523 c 0,0 1.3671,0.2705 3.2153,0.6164 1.3524,14.2602 5.7859,27.6636 12.1116,38.9033 5.0342,8.3548 10.9396,16.7545 17.9111,23.3811 7.003,6.5816 15.0564,11.39 24.3281,14.0948 17.5955,7.8437 37.836,4.568 56.5889,-2.7048 18.6786,-7.5733 37.0855,-21.9084 48.4905,-42.2091 11.4197,-20.3006 12.9828,-43.291 4.4628,-64.8538" /><path
     id="path6229"
     style="fill:none;stroke:#1b6ab5;stroke-width:47.5293;stroke-linecap:butt;stroke-linejoin:miter;stroke-miterlimit:10;stroke-dasharray:none;stroke-opacity:1"
     d="m 677.3151,238.7084 c 0,0 -1.6071,1.8784 -3.9963,4.7034 -2.3746,2.8099 -5.6507,6.5063 -8.5053,10.5184 -5.92,7.8738 -11.8412,15.7627 -11.8412,15.7627 0,0 -1.4876,1.9684 -3.6965,4.9136 -2.299,2.9001 -5.1232,6.9422 -7.7829,11.0895 -5.4399,8.2194 -10.8798,16.4238 -10.8798,16.4238 0,0 -5.6642,8.0841 -10.3975,16.7393 -4.9294,8.52 -9.8723,17.0399 -9.8723,17.0399 0,0 -5.0343,8.4749 -9.2717,17.3856 -4.4177,8.8054 -8.8355,17.6109 -8.8355,17.6109 0,0 -1.0932,2.2089 -2.7498,5.5147 -1.4572,3.3809 -3.3956,7.9189 -5.3498,12.4418 -3.861,9.0609 -7.7378,18.1218 -7.7378,18.1218 0,0 -1.0707,2.2239 -2.3441,5.695 -1.233,3.4862 -2.9009,8.1142 -4.553,12.7574 -3.3212,9.2713 -6.6267,18.5576 -6.6267,18.5576 0,0 -0.9466,2.284 -1.8933,5.8603 -1.0368,3.5462 -2.405,8.2795 -3.772,12.9977 -2.7352,9.4666 -5.485,18.9333 -5.485,18.9333 0,0 -0.71,2.3592 -1.4425,5.9805 -0.8114,3.6063 -1.8776,8.4148 -2.9595,13.2232 -2.1491,9.6169 -4.2983,19.2338 -4.2983,19.2338 l -6.2209,38.9182 -3.7415,39.2189 -1.2465,39.3991 c 0,0 0.1465,9.8424 0.3043,19.6996 0.3043,9.8424 0.9354,19.6846 0.9354,19.6846 0,0 0.5409,9.8272 1.518,19.6395 0.8565,9.8122 2.1188,19.5943 2.1188,19.5943 0,0 5.0488,42.7501 16.5733,84.1779 10.8494,41.608 27.9941,81.0973 27.9941,81.0973" /><path
     id="path6231"
     style="fill:#1b6ab5;fill-opacity:1;fill-rule:nonzero;stroke:none;stroke-width:1.50263"
     d="m 761.5533,204.1929 c -7.1079,6.6566 -16.4539,9.5868 -25.8901,9.3314 -9.1961,-0.056 -18.6785,-3.5162 -25.9813,-10.6237 -7.3028,-7.1225 -10.9689,-16.6643 -10.7582,-26.5516 0.4057,-9.6469 4.8979,-19.399 12.922,-26.8821 16.1687,-15.1466 40.9927,-12.8326 53.3894,2.9601 12.8025,16.2436 10.3378,38.5577 -3.6818,51.7659 z m 42.2989,-80.7518 C 790.7499,104.1923 770.7799,92.592 747.8188,90.4132 c -11.5549,-1.2622 -23.4862,0.2108 -34.996,4.3426 -11.555,4.0872 -23.2755,10.1729 -32.9225,19.5342 -20.121,17.9116 -30.0677,42.6149 -30.4137,65.1845 0,14.9212 4.2228,29.046 11.9764,41.2023 -1.3682,1.5929 -2.3746,2.7799 -2.3746,2.7799 l 18.212,15.2517 c 0,0 0,0 0,0 v 0 l 18.212,15.2669 c 0,0 1.0368,-1.2022 2.4049,-2.825 12.9828,5.8303 26.7613,8.7453 39.9852,8.5951 21.1421,0.1014 40.3008,-6.807 55.5972,-20.3608 7.2882,-7.2126 13.5384,-14.846 17.7161,-23.967 4.1169,-9.1661 6.7619,-19.1286 7.9937,-29.2563 2.1491,-20.496 -2.2686,-43.4563 -15.372,-62.7202" /><path
     id="path6233"
     style="fill:none;stroke:#1b6ab5;stroke-width:47.5293;stroke-linecap:butt;stroke-linejoin:miter;stroke-miterlimit:10;stroke-dasharray:none;stroke-opacity:1"
     d="m 988.5864,1239.1644 c 0,0 9.2717,2.4343 18.5433,4.8686 9.346,2.1338 18.6921,4.2525 18.6921,4.2525 0,0 9.4069,1.8332 18.8137,3.6664 9.4509,1.5327 18.9175,3.0804 18.9175,3.0804 0,0 9.4666,1.4425 18.9941,2.4944 9.5117,1.3073 19.0685,1.9384 19.0685,1.9384 0,0 9.541,0.9918 19.1282,1.3373 9.5714,0.6165 19.1439,0.781 19.1439,0.781 0,0 9.5861,0.3911 19.1733,0.1014 9.5714,-0.4508 19.144,-0.8869 19.144,-0.8869 0,0 9.5714,-0.4361 19.1428,-0.8712 4.7942,-0.2254 9.5872,-0.4361 13.1631,-0.6006 3.6064,-0.056 5.9663,-0.6007 5.9663,-0.6007 l 37.9712,-5.2442 c 0,0 2.3746,-0.3302 5.9358,-0.8114 3.5455,-0.5714 8.3543,-0.932 12.9828,-2.2089 9.3314,-2.1638 18.6774,-4.3276 18.6774,-4.3276 0,0 9.3314,-2.1638 18.6628,-4.3276 4.6736,-1.0965 9.3314,-2.1788 12.8475,-3.0053 3.4114,-1.1123 5.68,-1.8632 5.68,-1.8632 l 36.4239,-11.9761 c 0,0 2.2686,-0.7517 5.6947,-1.8782 3.4711,-0.9771 7.8595,-2.9002 12.2468,-4.8235 8.8051,-3.7866 17.6113,-7.5733 17.6113,-7.5733 0,0 8.8051,-3.7866 17.5955,-7.5882 4.4324,-1.8333 8.8051,-3.7867 11.9156,-5.6199 3.1555,-1.7131 5.2742,-2.84 5.2742,-2.84 l 33.735,-18.197 c 0,0 2.1638,-1.0515 5.2292,-2.9301 3.0045,-1.9684 7.0019,-4.5981 11.0139,-7.2277 8.0095,-5.2743 16.0178,-10.5335 16.0178,-10.5335 0,0 8.0094,-5.2743 16.0188,-10.5334 7.6928,-5.7101 15.1308,-11.7657 15.1308,-11.7657 0,0 7.5283,-5.9354 15.0565,-11.8709 3.7573,-2.9601 7.5135,-5.9353 10.3389,-8.1593 2.8692,-2.1638 4.598,-3.8317 4.598,-3.8317 l 27.9491,-26.2361 c 0,0 1.7581,-1.6378 4.3727,-4.1022 2.6146,-2.4642 6.2051,-5.6499 9.2863,-9.3314 6.4012,-7.1375 12.7867,-14.275 12.7867,-14.275 0,0 25.7706,-28.3998 25.0189,-29.0309 l 23.0354,-30.6388 c 0,0 1.4425,-1.9083 3.6063,-4.7784 2.059,-2.9603 4.4786,-7.0924 7.0628,-11.1346 5.0635,-8.1292 10.1428,-16.2585 10.1428,-16.2585 0,0 5.0793,-8.1293 10.1575,-16.2585 2.7205,-3.967 4.5383,-8.4449 6.266,-11.5853 1.6386,-3.2007 2.7205,-5.3345 2.7205,-5.3345 l 17.4005,-34.1548 c 0,0 3.9366,-9.6771 9.8115,-24.1925 2.9301,-7.2578 6.3415,-15.7327 10.0076,-24.8237 3.3065,-9.1961 5.9808,-19.3088 9.1059,-29.2713 2.9009,-10.0225 6.3269,-19.91 8.6102,-29.4217 1.9834,-9.5867 3.8317,-18.5275 5.4095,-26.2059 3.1713,-15.3269 5.2742,-25.5599 5.2742,-25.5599" /><path
     id="path6235"
     style="fill:#1b6ab5;fill-opacity:1;fill-rule:nonzero;stroke:none;stroke-width:1.50263"
     d="m 895.258,1245.4154 c -19.7898,-8.5951 -27.8285,-31.2999 -18.4971,-49.4217 9.3314,-18.1218 30.5185,-25.9655 47.7083,-18.5125 17.2203,7.363 26.1155,28.0843 19.3694,47.3782 -6.7021,19.1887 -28.7458,29.0159 -48.5806,20.556 z m 93.3284,-6.266 6.3562,-22.8851 c 0,0 -1.3524,-0.391 -3.1556,-0.932 0.1127,-14.29 -3.0349,-28.0993 -8.414,-40.0452 -8.3554,-18.8882 -21.9242,-33.6141 -40.1362,-41.4578 -18.1669,-7.919 -38.3172,-7.4531 -57.7159,-0.6458 -19.2488,6.822 -37.8969,20.2555 -49.9623,40.2406 -12.0069,19.895 -14.6215,43.0355 -7.4088,64.5232 7.1079,21.3675 24.2684,40.6915 48.3248,51.1348 24.1027,10.3832 50.0232,9.3464 70.3843,-0.079 13.2679,-6.2359 23.8469,-16.0331 31.5847,-28.0542 2.3148,0.6762 3.772,1.1124 3.772,1.1124 l 6.3708,-22.8851 v -0.011 -0.011" /><path
     id="path6237"
     style="fill:none;stroke:#1b6ab5;stroke-width:47.5293;stroke-linecap:butt;stroke-linejoin:miter;stroke-miterlimit:10;stroke-dasharray:none;stroke-opacity:1"
     d="m 1692.8576,323.1867 c 0,0 -5.0635,-8.3095 -10.1124,-16.6191 -2.5391,-4.1624 -5.0635,-8.3096 -6.9568,-11.4351 -1.9384,-3.0804 -3.4711,-4.9888 -3.4711,-4.9888 l -22.8258,-31.5103 c 0,0 -1.4268,-1.9684 -3.5759,-4.9286 -2.3588,-2.7799 -5.4997,-6.4914 -8.6406,-10.2029 -6.3111,-7.393 -12.6368,-14.7859 -12.6368,-14.7859 0,0 -6.3561,-7.363 -12.7123,-14.7259 -6.8971,-6.867 -13.7796,-13.7342 -13.7796,-13.7342 0,0 -27.4532,-27.6034 -28.0685,-26.9272 L 1540.4,148.1596 c 0,0 -1.8178,-1.6229 -4.8381,-3.6965 -2.9606,-2.1187 -6.9118,-4.9587 -10.8641,-7.7987 -7.8889,-5.68 -15.7924,-11.3599 -15.7924,-11.3599 0,0 -1.9834,-1.4126 -4.944,-3.5463 -2.9448,-2.1488 -6.8667,-5.0339 -11.1199,-7.4231 -8.3239,-5.0187 -16.6635,-10.0375 -16.6635,-10.0375 0,0 -8.325,-5.0339 -16.6646,-10.0527 -4.0876,-2.6446 -8.4602,-4.7783 -11.751,-6.3712 -3.2604,-1.6229 -5.4388,-2.7048 -5.4388,-2.7048 0,0 -8.7161,-4.3276 -17.4163,-8.6552 -4.3569,-2.1638 -8.715,-4.3276 -11.9911,-5.9654 -3.2299,-1.6829 -5.4996,-2.5695 -5.4996,-2.5695 l -36.1535,-14.4103 c 0,0 -8.8952,-3.982 -18.3168,-6.4914 -9.3009,-2.84 -18.6177,-5.68 -18.6177,-5.68 0,0 -9.3009,-2.84 -18.603,-5.68 -4.6127,-1.6077 -9.4666,-2.2089 -13.0121,-3.1104 -3.5612,-0.7664 -5.9358,-1.2772 -5.9358,-1.2772 0,0 -9.5117,-2.0587 -19.0234,-4.1022 -4.7479,-1.0222 -9.5117,-2.0436 -13.0729,-2.8099 -3.5466,-0.8712 -5.9809,-1.0673 -5.9809,-1.0673 l -38.6024,-4.9587 c 0,0 -10.473,-1.8032 -26.3859,-2.0736 -15.8836,-0.4204 -37.055,-2.2991 -58.258,-1.3223 -42.4488,1.0368 -84.298,8.3997 -84.298,8.3997" /><path
     id="path6239"
     style="fill:#1b6ab5;fill-opacity:1;fill-rule:nonzero;stroke:none;stroke-width:1.50263"
     d="m 1690.2588,368.1006 c 0,0 -4.1924,-8.3847 -8.3701,-16.7394 -4.4178,-8.2495 -9.5264,-16.1083 -9.5264,-16.1083 l 40.9612,-24.1173 c 0,0 5.485,8.505 10.2487,17.4005 4.5373,9.0309 9.0756,18.0618 9.0756,18.0618 l -42.389,21.5027" /><path
     id="path6241"
     style="fill:#1b6ab5;fill-opacity:1;fill-rule:nonzero;stroke:none;stroke-width:1.50263"
     d="m 1744.2636,433.4353 c -18.8735,6.3411 -40.6321,-2.6146 -47.6791,-20.2556 -6.506,-17.8964 0.3493,-38.7229 18.8126,-48.0092 17.9573,-9.031 41.7884,-1.0369 49.4225,19.5192 8.1436,20.3006 -0.8001,42.0888 -20.556,48.7456 z m 14.0939,45.56 c 22.5396,-5.8904 40.1058,-20.6614 49.7381,-41.3226 4.8077,-10.2781 7.6928,-21.9836 8.2641,-34.2902 -0.1916,-12.0511 -2.7047,-24.6883 -7.6781,-37.01 -2.4951,-6.1607 -5.485,-11.9309 -8.8806,-17.2502 -3.6818,-5.1992 -7.9643,-9.8423 -12.4125,-14.0347 -8.955,-8.3396 -19.0685,-14.6356 -29.6012,-18.5275 -20.9618,-7.9339 -45.1693,-5.0789 -64.9297,6.6266 -20.3149,12.0211 -32.8627,30.128 -40.3458,49.7974 -3.6357,9.8273 -5.5448,19.8799 -5.4095,29.6471 0,4.8985 0.71,9.6769 1.7434,14.4553 0.7213,4.9136 1.9981,9.7221 3.8768,14.3954 3.7562,9.3613 9.5714,17.3854 16.9644,24.1624 6.6571,7.0172 14.8761,12.8025 24.2526,17.1751 18.7078,8.6702 41.8943,12.0661 64.418,6.1759" /><path
     id="path6243"
     style="fill:#65cce0;fill-opacity:1;fill-rule:nonzero;stroke:none;stroke-width:1.50263"
     d="m 941.1034,61.9683 c 0,16.0631 -13.0132,29.076 -29.076,29.076 -16.0482,0 -29.076,-13.0129 -29.076,-29.076 0,-16.0482 13.0278,-29.0611 29.076,-29.0611 16.0628,0 29.076,13.0129 29.076,29.0611" /><path
     id="path6245"
     style="fill:#65cce0;fill-opacity:1;fill-rule:nonzero;stroke:none;stroke-width:1.50263"
     d="m 716.7142,1062.0636 c 0,16.0632 -13.0121,29.0761 -29.076,29.0761 -16.0482,0 -29.0603,-13.0129 -29.0603,-29.0761 0,-16.0481 13.0121,-29.061 29.0603,-29.061 16.0639,0 29.076,13.0129 29.076,29.061" /><path
     id="path6247"
     style="fill:#65cce0;fill-opacity:1;fill-rule:nonzero;stroke:none;stroke-width:1.50263"
     d="m 1816.5096,596.6817 c 0,16.0482 -13.0121,29.0761 -29.076,29.0761 -16.0482,0 -29.0761,-13.0279 -29.0761,-29.0761 0,-16.0631 13.0279,-29.076 29.0761,-29.076 16.0639,0 29.076,13.0129 29.076,29.076" /><path
     id="path6249"
     style="fill:#65cce0;fill-opacity:1;fill-rule:nonzero;stroke:none;stroke-width:1.50263"
     d="m 1456.8841,1046.2259 c 0,16.0631 -13.0132,29.076 -29.076,29.076 -16.0482,0 -29.076,-13.0129 -29.076,-29.076 0,-16.0482 13.0278,-29.076 29.076,-29.076 16.0628,0 29.076,13.0278 29.076,29.076" /><path
     id="path6251"
     style="fill:#65cce0;fill-opacity:1;fill-rule:nonzero;stroke:none;stroke-width:1.50263"
     d="m 1554.5548,297.2362 c 0,16.0632 -13.0121,29.0761 -29.076,29.0761 -16.0482,0 -29.0761,-13.0129 -29.0761,-29.0761 0,-16.0481 13.0279,-29.061 29.0761,-29.061 16.0639,0 29.076,13.0129 29.076,29.061" /><path
     id="path6253"
     style="fill:#65cce0;fill-opacity:1;fill-rule:nonzero;stroke:none;stroke-width:1.50263"
     d="m 843.4316,508.0713 c 0,16.0482 -13.0121,29.0609 -29.076,29.0609 -16.0482,0 -29.0603,-13.0127 -29.0603,-29.0609 0,-16.0633 13.0121,-29.076 29.0603,-29.076 16.0639,0 29.076,13.0127 29.076,29.076" /><path
     id="path6255"
     style="fill:none;stroke:#65cce0;stroke-width:47.5293;stroke-linecap:butt;stroke-linejoin:miter;stroke-miterlimit:10;stroke-dasharray:none;stroke-opacity:1"
     d="m 1232.3743,868.9297 c 0,0 9.1815,-3.411 18.363,-6.8221 8.8197,-4.2524 17.6552,-8.5048 17.6552,-8.5048 0,0 2.2991,-0.9016 5.3802,-2.9152 3.1398,-1.9083 7.3175,-4.4478 11.5099,-7.0022 4.2678,-2.4043 8.2945,-5.1841 11.1649,-7.4983 2.9302,-2.1937 4.8979,-3.6664 4.8979,-3.6664 0.5297,0.6762 30.0835,-25.109 29.3318,-25.8904 0,0 6.5512,-7.2728 13.0876,-14.5605 5.8761,-7.8438 11.751,-15.6875 11.751,-15.6875 0,0 1.5778,-1.8934 3.3956,-5.094 1.9091,-3.1256 4.4482,-7.3179 6.9873,-11.4952 2.7047,-4.1173 4.9136,-8.4748 6.417,-11.8408 1.5924,-3.3058 2.6597,-5.5146 2.6597,-5.5146 0.8114,0.3753 15.026,-36.1836 14.0038,-36.5141 0,0 2.4196,-9.4967 4.8539,-18.9783 1.4876,-9.692 2.9606,-19.3691 2.9606,-19.3691 0.9579,0.09 2.4038,-39.1137 1.4571,-39.0986 0,0 -0.1352,-2.4342 -0.3155,-6.1157 -0.2705,-3.6514 -0.1803,-8.5801 -1.1416,-13.4035 -1.473,-9.677 -2.9606,-19.3691 -2.9606,-19.3691 0,0 -2.4343,-9.4816 -4.8539,-18.9783 -1.0256,-4.8084 -2.9899,-9.3164 -4.1924,-12.7874 -1.2622,-3.441 -2.1029,-5.7401 -2.1029,-5.7401 0.8452,-0.346 -15.763,-35.883 -16.7852,-35.342 0,0 -4.8686,-8.505 -10.3829,-16.5891 -5.8749,-7.8438 -11.751,-15.6876 -11.751,-15.6876 0,0 -1.5327,-1.9083 -4.0267,-4.598 -2.4793,-2.7198 -5.7701,-6.3412 -9.0609,-9.9625 -3.1555,-3.7717 -6.9568,-6.8971 -9.6469,-9.3915 -2.7047,-2.4793 -4.5226,-4.1173 -4.5226,-4.1173 0.6199,-0.7212 -30.6087,-24.4779 -31.2251,-23.5463 0,0 -2.1041,-1.2772 -5.2439,-3.1856 -3.2006,-1.7881 -7.1676,-4.7333 -11.6462,-6.7318 -8.8355,-4.2524 -17.6552,-8.5049 -17.6552,-8.5049 0,0 -9.1815,-3.4261 -18.363,-6.822 -4.5372,-1.8933 -9.346,-2.885 -12.8926,-3.8317 -3.5613,-0.932 -5.9347,-1.5327 -5.9347,-1.5327 0.2141,-0.9016 -38.4829,-7.4231 -38.6035,-6.3261 0,0 -9.7822,-0.4958 -19.5643,-0.9917 -9.7822,0.4959 -19.5644,0.9917 -19.5644,0.9917 -0.1127,-1.0965 -38.7973,5.4245 -38.6023,6.3261 0,0 -2.3588,0.6007 -5.9201,1.5327 -3.5466,0.9467 -8.37,1.9384 -12.8926,3.8317 -9.1961,3.3959 -18.3776,6.822 -18.3776,6.822 0,0 -8.8209,4.2525 -17.6406,8.5049 -4.4786,1.9985 -8.4456,4.9437 -11.6609,6.7318 -3.1408,1.9084 -5.2291,3.1856 -5.2291,3.1856 -0.6199,-0.932 -31.8405,22.8251 -31.2252,23.5463 0,0 -1.8178,1.638 -4.5372,4.1173 -2.6755,2.4944 -6.4914,5.6198 -9.6323,9.3915 -3.2908,3.6213 -6.5962,7.2427 -9.0609,9.9625 -2.5098,2.6897 -4.0425,4.598 -4.0425,4.598 0,0 -5.8603,7.8438 -11.7352,15.6876 -5.5143,8.0841 -10.3986,16.5891 -10.3986,16.5891 -1.003,-0.541 -17.626,34.9964 -16.7695,35.342 0,0 -0.8452,2.2991 -2.1187,5.7401 -1.2014,3.471 -3.1555,7.979 -4.1766,12.7874 -2.4342,9.4967 -4.8539,18.9783 -4.8539,18.9783 0,0 -1.4876,9.6921 -2.9752,19.3691 -0.9579,4.8234 -0.8565,9.7521 -1.127,13.4035 -0.1916,3.6815 -0.3155,6.1157 -0.3155,6.1157 -0.9467,-0.011 0.4846,39.1888 1.4425,39.0986 0,0 1.4876,9.6771 2.9752,19.3691 2.4197,9.4816 4.8539,18.9783 4.8539,18.9783 -1.0255,0.3302 13.1778,36.8897 13.9892,36.5141 0,0 1.0706,2.2088 2.6597,5.5146 1.518,3.366 3.7269,7.7235 6.4159,11.8408 2.5548,4.1773 5.0939,8.3696 7.003,11.4952 1.8178,3.2006 3.3956,5.094 3.3956,5.094 0,0 5.8749,7.8437 11.7352,15.6875 6.5523,7.2877 13.1034,14.5605 13.1034,14.5605 -0.7551,0.781 28.7909,26.5666 29.3318,25.8904 0,0 1.9531,1.4727 4.8979,3.6664 2.8558,2.3142 6.8971,5.094 11.165,7.4983 4.1923,2.5544 8.37,5.0939 11.5098,7.0022 3.0811,2.0136 5.3802,2.9152 5.3802,2.9152 0,0 8.8197,4.2524 17.6406,8.5048 9.1961,3.4111 18.3776,6.8221 18.3776,6.8221 -0.3155,1.0368 37.836,10.1728 37.9859,9.2562 0,0 2.4343,0.3753 6.0564,0.932 3.6356,0.541 8.4591,1.4725 13.3727,1.5026 9.7822,0.4959 19.5644,0.9918 19.5644,0.9918 0,0 9.7821,-0.4959 19.5643,-0.9918 4.9294,-0.034 9.7371,-0.9613 13.3739,-1.5026 3.6367,-0.5556 6.0552,-0.932 6.0552,-0.932 0.1691,0.9162 38.3173,-8.2194 38.0017,-9.2562 z" /></g></svg>
